<mxfile host="Electron" modified="2024-07-22T10:35:27.538Z" agent="Mozilla/5.0 (Windows NT 10.0; Win64; x64) AppleWebKit/537.36 (KHTML, like Gecko) draw.io/24.5.3 Chrome/124.0.6367.207 Electron/30.0.6 Safari/537.36" etag="4Ag4N2kgPqklvW3BpWS2" version="24.5.3" type="device">
  <diagram id="C5RBs43oDa-KdzZeNtuy" name="Page-1">
    <mxGraphModel dx="1022" dy="616" grid="1" gridSize="10" guides="1" tooltips="1" connect="1" arrows="1" fold="1" page="1" pageScale="1" pageWidth="827" pageHeight="1169" math="0" shadow="0">
      <root>
        <mxCell id="WIyWlLk6GJQsqaUBKTNV-0" />
        <mxCell id="WIyWlLk6GJQsqaUBKTNV-1" parent="WIyWlLk6GJQsqaUBKTNV-0" />
        <mxCell id="Yez8xT51xrSysQCl3FHD-80" value="" style="edgeStyle=orthogonalEdgeStyle;rounded=0;orthogonalLoop=1;jettySize=auto;html=1;entryX=0;entryY=0.5;entryDx=0;entryDy=0;" edge="1" parent="WIyWlLk6GJQsqaUBKTNV-1" source="WIyWlLk6GJQsqaUBKTNV-3" target="Yez8xT51xrSysQCl3FHD-1">
          <mxGeometry relative="1" as="geometry">
            <mxPoint x="260" y="100" as="targetPoint" />
          </mxGeometry>
        </mxCell>
        <mxCell id="WIyWlLk6GJQsqaUBKTNV-3" value="Enter user name" style="rounded=1;whiteSpace=wrap;html=1;fontSize=12;glass=0;strokeWidth=1;shadow=0;" parent="WIyWlLk6GJQsqaUBKTNV-1" vertex="1">
          <mxGeometry x="8" y="80" width="120" height="40" as="geometry" />
        </mxCell>
        <mxCell id="Yez8xT51xrSysQCl3FHD-25" value="" style="edgeStyle=orthogonalEdgeStyle;rounded=0;orthogonalLoop=1;jettySize=auto;html=1;" edge="1" parent="WIyWlLk6GJQsqaUBKTNV-1" source="WIyWlLk6GJQsqaUBKTNV-6" target="WIyWlLk6GJQsqaUBKTNV-7">
          <mxGeometry relative="1" as="geometry" />
        </mxCell>
        <mxCell id="Yez8xT51xrSysQCl3FHD-31" value="" style="edgeStyle=orthogonalEdgeStyle;rounded=0;orthogonalLoop=1;jettySize=auto;html=1;" edge="1" parent="WIyWlLk6GJQsqaUBKTNV-1" source="WIyWlLk6GJQsqaUBKTNV-6" target="Yez8xT51xrSysQCl3FHD-29">
          <mxGeometry relative="1" as="geometry" />
        </mxCell>
        <mxCell id="Yez8xT51xrSysQCl3FHD-50" value="" style="edgeStyle=orthogonalEdgeStyle;rounded=0;orthogonalLoop=1;jettySize=auto;html=1;" edge="1" parent="WIyWlLk6GJQsqaUBKTNV-1" source="WIyWlLk6GJQsqaUBKTNV-6" target="Yez8xT51xrSysQCl3FHD-49">
          <mxGeometry relative="1" as="geometry" />
        </mxCell>
        <mxCell id="WIyWlLk6GJQsqaUBKTNV-6" value="User chose&lt;div&gt;h or H&lt;/div&gt;" style="rhombus;whiteSpace=wrap;html=1;shadow=0;fontFamily=Helvetica;fontSize=12;align=center;strokeWidth=1;spacing=6;spacingTop=-4;" parent="WIyWlLk6GJQsqaUBKTNV-1" vertex="1">
          <mxGeometry x="193" y="170" width="120" height="100" as="geometry" />
        </mxCell>
        <mxCell id="WIyWlLk6GJQsqaUBKTNV-7" value="Show help page" style="rounded=1;whiteSpace=wrap;html=1;fontSize=12;glass=0;strokeWidth=1;shadow=0;" parent="WIyWlLk6GJQsqaUBKTNV-1" vertex="1">
          <mxGeometry x="353" y="200" width="120" height="40" as="geometry" />
        </mxCell>
        <mxCell id="WIyWlLk6GJQsqaUBKTNV-8" value="No" style="rounded=0;html=1;jettySize=auto;orthogonalLoop=1;fontSize=11;endArrow=block;endFill=0;endSize=8;strokeWidth=1;shadow=0;labelBackgroundColor=none;edgeStyle=orthogonalEdgeStyle;" parent="WIyWlLk6GJQsqaUBKTNV-1" source="WIyWlLk6GJQsqaUBKTNV-10" target="WIyWlLk6GJQsqaUBKTNV-11" edge="1">
          <mxGeometry x="-0.2" y="-18" relative="1" as="geometry">
            <mxPoint as="offset" />
          </mxGeometry>
        </mxCell>
        <mxCell id="WIyWlLk6GJQsqaUBKTNV-10" value="Bulb&lt;br&gt;burned out?" style="rhombus;whiteSpace=wrap;html=1;shadow=0;fontFamily=Helvetica;fontSize=12;align=center;strokeWidth=1;spacing=6;spacingTop=-4;" parent="WIyWlLk6GJQsqaUBKTNV-1" vertex="1">
          <mxGeometry x="660" y="90" width="100" height="80" as="geometry" />
        </mxCell>
        <mxCell id="WIyWlLk6GJQsqaUBKTNV-11" value="Repair Lamp" style="rounded=1;whiteSpace=wrap;html=1;fontSize=12;glass=0;strokeWidth=1;shadow=0;" parent="WIyWlLk6GJQsqaUBKTNV-1" vertex="1">
          <mxGeometry x="650" y="220" width="120" height="40" as="geometry" />
        </mxCell>
        <mxCell id="WIyWlLk6GJQsqaUBKTNV-12" value="Replace Bulb" style="rounded=1;whiteSpace=wrap;html=1;fontSize=12;glass=0;strokeWidth=1;shadow=0;" parent="WIyWlLk6GJQsqaUBKTNV-1" vertex="1">
          <mxGeometry x="640" y="30" width="120" height="40" as="geometry" />
        </mxCell>
        <mxCell id="Yez8xT51xrSysQCl3FHD-0" style="edgeStyle=orthogonalEdgeStyle;rounded=0;orthogonalLoop=1;jettySize=auto;html=1;exitX=0.57;exitY=1.115;exitDx=0;exitDy=0;entryX=0.5;entryY=0;entryDx=0;entryDy=0;exitPerimeter=0;" edge="1" parent="WIyWlLk6GJQsqaUBKTNV-1" source="Yez8xT51xrSysQCl3FHD-1" target="WIyWlLk6GJQsqaUBKTNV-6">
          <mxGeometry relative="1" as="geometry" />
        </mxCell>
        <mxCell id="6_x7eMIS8R5IB6vk94IP-0" value="Task list" style="rounded=1;whiteSpace=wrap;html=1;fontSize=12;glass=0;strokeWidth=1;shadow=0;" parent="WIyWlLk6GJQsqaUBKTNV-1" vertex="1">
          <mxGeometry x="690" y="320" width="120" height="40" as="geometry" />
        </mxCell>
        <mxCell id="Yez8xT51xrSysQCl3FHD-1" value="Actions menu&lt;div&gt;&lt;/div&gt;" style="rounded=1;whiteSpace=wrap;html=1;fontSize=12;glass=0;strokeWidth=1;shadow=0;" vertex="1" parent="WIyWlLk6GJQsqaUBKTNV-1">
          <mxGeometry x="184" y="80" width="120" height="40" as="geometry" />
        </mxCell>
        <mxCell id="Yez8xT51xrSysQCl3FHD-34" value="" style="edgeStyle=orthogonalEdgeStyle;rounded=0;orthogonalLoop=1;jettySize=auto;html=1;" edge="1" parent="WIyWlLk6GJQsqaUBKTNV-1" source="Yez8xT51xrSysQCl3FHD-29" target="Yez8xT51xrSysQCl3FHD-32">
          <mxGeometry relative="1" as="geometry" />
        </mxCell>
        <mxCell id="Yez8xT51xrSysQCl3FHD-53" value="" style="edgeStyle=orthogonalEdgeStyle;rounded=0;orthogonalLoop=1;jettySize=auto;html=1;" edge="1" parent="WIyWlLk6GJQsqaUBKTNV-1" source="Yez8xT51xrSysQCl3FHD-29" target="Yez8xT51xrSysQCl3FHD-52">
          <mxGeometry relative="1" as="geometry" />
        </mxCell>
        <mxCell id="Yez8xT51xrSysQCl3FHD-68" value="" style="edgeStyle=orthogonalEdgeStyle;rounded=0;orthogonalLoop=1;jettySize=auto;html=1;" edge="1" parent="WIyWlLk6GJQsqaUBKTNV-1" source="Yez8xT51xrSysQCl3FHD-29" target="Yez8xT51xrSysQCl3FHD-63">
          <mxGeometry relative="1" as="geometry" />
        </mxCell>
        <mxCell id="Yez8xT51xrSysQCl3FHD-29" value="User chose&lt;div&gt;A or a&lt;/div&gt;&lt;div&gt;(Add task)&lt;/div&gt;" style="rhombus;whiteSpace=wrap;html=1;shadow=0;fontFamily=Helvetica;fontSize=12;align=center;strokeWidth=1;spacing=6;spacingTop=-4;" vertex="1" parent="WIyWlLk6GJQsqaUBKTNV-1">
          <mxGeometry x="193" y="300" width="119" height="100" as="geometry" />
        </mxCell>
        <mxCell id="Yez8xT51xrSysQCl3FHD-35" value="" style="edgeStyle=orthogonalEdgeStyle;rounded=0;orthogonalLoop=1;jettySize=auto;html=1;" edge="1" parent="WIyWlLk6GJQsqaUBKTNV-1" source="Yez8xT51xrSysQCl3FHD-32" target="Yez8xT51xrSysQCl3FHD-33">
          <mxGeometry relative="1" as="geometry" />
        </mxCell>
        <mxCell id="Yez8xT51xrSysQCl3FHD-56" value="" style="edgeStyle=orthogonalEdgeStyle;rounded=0;orthogonalLoop=1;jettySize=auto;html=1;" edge="1" parent="WIyWlLk6GJQsqaUBKTNV-1" source="Yez8xT51xrSysQCl3FHD-32" target="Yez8xT51xrSysQCl3FHD-55">
          <mxGeometry relative="1" as="geometry" />
        </mxCell>
        <mxCell id="Yez8xT51xrSysQCl3FHD-69" value="" style="edgeStyle=orthogonalEdgeStyle;rounded=0;orthogonalLoop=1;jettySize=auto;html=1;" edge="1" parent="WIyWlLk6GJQsqaUBKTNV-1" source="Yez8xT51xrSysQCl3FHD-32" target="Yez8xT51xrSysQCl3FHD-64">
          <mxGeometry relative="1" as="geometry" />
        </mxCell>
        <mxCell id="Yez8xT51xrSysQCl3FHD-32" value="User chose&lt;div&gt;D or d&lt;/div&gt;&lt;div&gt;(Delete&lt;span style=&quot;background-color: initial;&quot;&gt;&amp;nbsp;task)&lt;/span&gt;&lt;/div&gt;" style="rhombus;whiteSpace=wrap;html=1;shadow=0;fontFamily=Helvetica;fontSize=12;align=center;strokeWidth=1;spacing=6;spacingTop=-4;" vertex="1" parent="WIyWlLk6GJQsqaUBKTNV-1">
          <mxGeometry x="193" y="430" width="119" height="100" as="geometry" />
        </mxCell>
        <mxCell id="Yez8xT51xrSysQCl3FHD-44" value="" style="edgeStyle=orthogonalEdgeStyle;rounded=0;orthogonalLoop=1;jettySize=auto;html=1;" edge="1" parent="WIyWlLk6GJQsqaUBKTNV-1" source="Yez8xT51xrSysQCl3FHD-33" target="Yez8xT51xrSysQCl3FHD-43">
          <mxGeometry relative="1" as="geometry" />
        </mxCell>
        <mxCell id="Yez8xT51xrSysQCl3FHD-59" value="" style="edgeStyle=orthogonalEdgeStyle;rounded=0;orthogonalLoop=1;jettySize=auto;html=1;" edge="1" parent="WIyWlLk6GJQsqaUBKTNV-1" source="Yez8xT51xrSysQCl3FHD-33" target="Yez8xT51xrSysQCl3FHD-58">
          <mxGeometry relative="1" as="geometry" />
        </mxCell>
        <mxCell id="Yez8xT51xrSysQCl3FHD-70" value="" style="edgeStyle=orthogonalEdgeStyle;rounded=0;orthogonalLoop=1;jettySize=auto;html=1;" edge="1" parent="WIyWlLk6GJQsqaUBKTNV-1" source="Yez8xT51xrSysQCl3FHD-33" target="Yez8xT51xrSysQCl3FHD-65">
          <mxGeometry relative="1" as="geometry" />
        </mxCell>
        <mxCell id="Yez8xT51xrSysQCl3FHD-33" value="User chose&lt;div&gt;S or s&lt;/div&gt;&lt;div&gt;(Show tasks)&lt;/div&gt;" style="rhombus;whiteSpace=wrap;html=1;shadow=0;fontFamily=Helvetica;fontSize=12;align=center;strokeWidth=1;spacing=6;spacingTop=-4;" vertex="1" parent="WIyWlLk6GJQsqaUBKTNV-1">
          <mxGeometry x="194" y="560" width="119" height="100" as="geometry" />
        </mxCell>
        <mxCell id="Yez8xT51xrSysQCl3FHD-47" value="" style="edgeStyle=orthogonalEdgeStyle;rounded=0;orthogonalLoop=1;jettySize=auto;html=1;" edge="1" parent="WIyWlLk6GJQsqaUBKTNV-1" source="Yez8xT51xrSysQCl3FHD-46">
          <mxGeometry relative="1" as="geometry">
            <mxPoint x="201" y="880" as="sourcePoint" />
            <mxPoint x="160" y="100" as="targetPoint" />
          </mxGeometry>
        </mxCell>
        <mxCell id="Yez8xT51xrSysQCl3FHD-72" value="" style="edgeStyle=orthogonalEdgeStyle;rounded=0;orthogonalLoop=1;jettySize=auto;html=1;" edge="1" parent="WIyWlLk6GJQsqaUBKTNV-1" source="Yez8xT51xrSysQCl3FHD-41" target="Yez8xT51xrSysQCl3FHD-66">
          <mxGeometry relative="1" as="geometry" />
        </mxCell>
        <mxCell id="Yez8xT51xrSysQCl3FHD-41" value="User chose&lt;div&gt;Q or q&lt;/div&gt;&lt;div&gt;(Quit)&lt;/div&gt;" style="rhombus;whiteSpace=wrap;html=1;shadow=0;fontFamily=Helvetica;fontSize=12;align=center;strokeWidth=1;spacing=6;spacingTop=-4;" vertex="1" parent="WIyWlLk6GJQsqaUBKTNV-1">
          <mxGeometry x="194" y="830" width="119" height="100" as="geometry" />
        </mxCell>
        <mxCell id="Yez8xT51xrSysQCl3FHD-45" value="" style="edgeStyle=orthogonalEdgeStyle;rounded=0;orthogonalLoop=1;jettySize=auto;html=1;" edge="1" parent="WIyWlLk6GJQsqaUBKTNV-1" source="Yez8xT51xrSysQCl3FHD-43" target="Yez8xT51xrSysQCl3FHD-41">
          <mxGeometry relative="1" as="geometry" />
        </mxCell>
        <mxCell id="Yez8xT51xrSysQCl3FHD-62" value="" style="edgeStyle=orthogonalEdgeStyle;rounded=0;orthogonalLoop=1;jettySize=auto;html=1;" edge="1" parent="WIyWlLk6GJQsqaUBKTNV-1" source="Yez8xT51xrSysQCl3FHD-43" target="Yez8xT51xrSysQCl3FHD-61">
          <mxGeometry relative="1" as="geometry" />
        </mxCell>
        <mxCell id="Yez8xT51xrSysQCl3FHD-71" value="" style="edgeStyle=orthogonalEdgeStyle;rounded=0;orthogonalLoop=1;jettySize=auto;html=1;" edge="1" parent="WIyWlLk6GJQsqaUBKTNV-1" source="Yez8xT51xrSysQCl3FHD-43" target="Yez8xT51xrSysQCl3FHD-67">
          <mxGeometry relative="1" as="geometry" />
        </mxCell>
        <mxCell id="Yez8xT51xrSysQCl3FHD-43" value="User chose&lt;div&gt;E or e&lt;/div&gt;&lt;div&gt;(Edit&lt;span style=&quot;background-color: initial;&quot;&gt;&amp;nbsp;tasks)&lt;/span&gt;&lt;/div&gt;" style="rhombus;whiteSpace=wrap;html=1;shadow=0;fontFamily=Helvetica;fontSize=12;align=center;strokeWidth=1;spacing=6;spacingTop=-4;" vertex="1" parent="WIyWlLk6GJQsqaUBKTNV-1">
          <mxGeometry x="194" y="690" width="119" height="100" as="geometry" />
        </mxCell>
        <mxCell id="Yez8xT51xrSysQCl3FHD-51" value="" style="edgeStyle=orthogonalEdgeStyle;rounded=0;orthogonalLoop=1;jettySize=auto;html=1;" edge="1" parent="WIyWlLk6GJQsqaUBKTNV-1" source="Yez8xT51xrSysQCl3FHD-52" target="Yez8xT51xrSysQCl3FHD-49">
          <mxGeometry relative="1" as="geometry">
            <mxPoint x="201" y="880" as="sourcePoint" />
            <mxPoint x="160" y="100" as="targetPoint" />
          </mxGeometry>
        </mxCell>
        <mxCell id="Yez8xT51xrSysQCl3FHD-49" value="" style="shape=waypoint;sketch=0;size=6;pointerEvents=1;points=[];fillColor=default;resizable=0;rotatable=0;perimeter=centerPerimeter;snapToPoint=1;shadow=0;strokeWidth=1;spacing=6;spacingTop=-4;" vertex="1" parent="WIyWlLk6GJQsqaUBKTNV-1">
          <mxGeometry x="150" y="210" width="20" height="20" as="geometry" />
        </mxCell>
        <mxCell id="Yez8xT51xrSysQCl3FHD-54" value="" style="edgeStyle=orthogonalEdgeStyle;rounded=0;orthogonalLoop=1;jettySize=auto;html=1;" edge="1" parent="WIyWlLk6GJQsqaUBKTNV-1" source="Yez8xT51xrSysQCl3FHD-55" target="Yez8xT51xrSysQCl3FHD-52">
          <mxGeometry relative="1" as="geometry">
            <mxPoint x="201" y="880" as="sourcePoint" />
            <mxPoint x="160" y="220" as="targetPoint" />
          </mxGeometry>
        </mxCell>
        <mxCell id="Yez8xT51xrSysQCl3FHD-52" value="" style="shape=waypoint;sketch=0;size=6;pointerEvents=1;points=[];fillColor=default;resizable=0;rotatable=0;perimeter=centerPerimeter;snapToPoint=1;shadow=0;strokeWidth=1;spacing=6;spacingTop=-4;" vertex="1" parent="WIyWlLk6GJQsqaUBKTNV-1">
          <mxGeometry x="150" y="340" width="20" height="20" as="geometry" />
        </mxCell>
        <mxCell id="Yez8xT51xrSysQCl3FHD-57" value="" style="edgeStyle=orthogonalEdgeStyle;rounded=0;orthogonalLoop=1;jettySize=auto;html=1;" edge="1" parent="WIyWlLk6GJQsqaUBKTNV-1" source="Yez8xT51xrSysQCl3FHD-58" target="Yez8xT51xrSysQCl3FHD-55">
          <mxGeometry relative="1" as="geometry">
            <mxPoint x="201" y="880" as="sourcePoint" />
            <mxPoint x="160" y="350" as="targetPoint" />
          </mxGeometry>
        </mxCell>
        <mxCell id="Yez8xT51xrSysQCl3FHD-55" value="" style="shape=waypoint;sketch=0;size=6;pointerEvents=1;points=[];fillColor=default;resizable=0;rotatable=0;perimeter=centerPerimeter;snapToPoint=1;shadow=0;strokeWidth=1;spacing=6;spacingTop=-4;" vertex="1" parent="WIyWlLk6GJQsqaUBKTNV-1">
          <mxGeometry x="150" y="470" width="20" height="20" as="geometry" />
        </mxCell>
        <mxCell id="Yez8xT51xrSysQCl3FHD-60" value="" style="edgeStyle=orthogonalEdgeStyle;rounded=0;orthogonalLoop=1;jettySize=auto;html=1;" edge="1" parent="WIyWlLk6GJQsqaUBKTNV-1" target="Yez8xT51xrSysQCl3FHD-58">
          <mxGeometry relative="1" as="geometry">
            <mxPoint x="201" y="880" as="sourcePoint" />
            <mxPoint x="160" y="480" as="targetPoint" />
          </mxGeometry>
        </mxCell>
        <mxCell id="Yez8xT51xrSysQCl3FHD-58" value="" style="shape=waypoint;sketch=0;size=6;pointerEvents=1;points=[];fillColor=default;resizable=0;rotatable=0;perimeter=centerPerimeter;snapToPoint=1;shadow=0;strokeWidth=1;spacing=6;spacingTop=-4;" vertex="1" parent="WIyWlLk6GJQsqaUBKTNV-1">
          <mxGeometry x="150" y="600" width="20" height="20" as="geometry" />
        </mxCell>
        <mxCell id="Yez8xT51xrSysQCl3FHD-61" value="" style="shape=waypoint;sketch=0;size=6;pointerEvents=1;points=[];fillColor=default;resizable=0;rotatable=0;perimeter=centerPerimeter;snapToPoint=1;shadow=0;strokeWidth=1;spacing=6;spacingTop=-4;" vertex="1" parent="WIyWlLk6GJQsqaUBKTNV-1">
          <mxGeometry x="150" y="730" width="20" height="20" as="geometry" />
        </mxCell>
        <mxCell id="Yez8xT51xrSysQCl3FHD-63" value="Show add task page" style="rounded=1;whiteSpace=wrap;html=1;fontSize=12;glass=0;strokeWidth=1;shadow=0;" vertex="1" parent="WIyWlLk6GJQsqaUBKTNV-1">
          <mxGeometry x="353" y="330" width="120" height="40" as="geometry" />
        </mxCell>
        <mxCell id="Yez8xT51xrSysQCl3FHD-64" value="Show delete task page" style="rounded=1;whiteSpace=wrap;html=1;fontSize=12;glass=0;strokeWidth=1;shadow=0;" vertex="1" parent="WIyWlLk6GJQsqaUBKTNV-1">
          <mxGeometry x="363" y="460" width="120" height="40" as="geometry" />
        </mxCell>
        <mxCell id="Yez8xT51xrSysQCl3FHD-65" value="Show all tasks&lt;span style=&quot;background-color: initial;&quot;&gt;&amp;nbsp;page&lt;/span&gt;" style="rounded=1;whiteSpace=wrap;html=1;fontSize=12;glass=0;strokeWidth=1;shadow=0;" vertex="1" parent="WIyWlLk6GJQsqaUBKTNV-1">
          <mxGeometry x="363" y="590" width="120" height="40" as="geometry" />
        </mxCell>
        <mxCell id="Yez8xT51xrSysQCl3FHD-66" value="Quit to main menu" style="rounded=1;whiteSpace=wrap;html=1;fontSize=12;glass=0;strokeWidth=1;shadow=0;" vertex="1" parent="WIyWlLk6GJQsqaUBKTNV-1">
          <mxGeometry x="363" y="860" width="120" height="40" as="geometry" />
        </mxCell>
        <mxCell id="Yez8xT51xrSysQCl3FHD-67" value="Show edit tasks page" style="rounded=1;whiteSpace=wrap;html=1;fontSize=12;glass=0;strokeWidth=1;shadow=0;" vertex="1" parent="WIyWlLk6GJQsqaUBKTNV-1">
          <mxGeometry x="363" y="720" width="120" height="40" as="geometry" />
        </mxCell>
        <mxCell id="Yez8xT51xrSysQCl3FHD-81" value="" style="edgeStyle=orthogonalEdgeStyle;rounded=0;orthogonalLoop=1;jettySize=auto;html=1;" edge="1" parent="WIyWlLk6GJQsqaUBKTNV-1" source="Yez8xT51xrSysQCl3FHD-49" target="Yez8xT51xrSysQCl3FHD-46">
          <mxGeometry relative="1" as="geometry">
            <mxPoint x="160" y="220" as="sourcePoint" />
            <mxPoint x="160" y="100" as="targetPoint" />
          </mxGeometry>
        </mxCell>
        <mxCell id="Yez8xT51xrSysQCl3FHD-46" value="" style="shape=waypoint;sketch=0;size=6;pointerEvents=1;points=[];fillColor=default;resizable=0;rotatable=0;perimeter=centerPerimeter;snapToPoint=1;shadow=0;strokeWidth=1;spacing=6;spacingTop=-4;" vertex="1" parent="WIyWlLk6GJQsqaUBKTNV-1">
          <mxGeometry x="150" y="90" width="20" height="20" as="geometry" />
        </mxCell>
      </root>
    </mxGraphModel>
  </diagram>
</mxfile>
